<svg width="30" height="26" viewBox="0 0 30 26" fill="none" xmlns="http://www.w3.org/2000/svg">
<path d="M6.36672 26C5.76672 26 5.23339 25.8164 4.76672 25.4493C4.30005 25.0822 3.97783 24.6102 3.80005 24.0333L0.400053 11.7C0.288942 11.2778 0.361387 10.8889 0.617387 10.5333C0.873387 10.1778 1.22316 10 1.66672 10H8.00005L13.8667 1.26667C13.9778 1.08889 14.1334 0.944446 14.3334 0.833335C14.5334 0.722223 14.7445 0.666668 14.9667 0.666668C15.1889 0.666668 15.4001 0.722223 15.6001 0.833335C15.8001 0.944446 15.9556 1.08889 16.0667 1.26667L21.9334 10H28.3334C28.7778 10 29.1281 10.1778 29.3841 10.5333C29.6401 10.8889 29.7121 11.2778 29.6001 11.7L26.2001 24.0333C26.0223 24.6111 25.7001 25.0836 25.2334 25.4507C24.7667 25.8178 24.2334 26.0009 23.6334 26H6.36672ZM6.33339 23.3333H23.6667L26.6001 12.6667H3.40005L6.33339 23.3333ZM15.0001 20.6667C15.7334 20.6667 16.3614 20.4058 16.8841 19.884C17.4067 19.3622 17.6676 18.7342 17.6667 18C17.6658 17.2658 17.4049 16.6382 16.8841 16.1173C16.3632 15.5964 15.7352 15.3351 15.0001 15.3333C14.2649 15.3316 13.6374 15.5929 13.1174 16.1173C12.5974 16.6418 12.3361 17.2693 12.3334 18C12.3307 18.7307 12.5921 19.3587 13.1174 19.884C13.6427 20.4093 14.2703 20.6702 15.0001 20.6667ZM11.2334 10H18.7334L14.9667 4.4L11.2334 10Z" fill="black"/>
</svg>
